<?xml version="1.0" standalone="no"?>
<!DOCTYPE svg PUBLIC "-//W3C//DTD SVG 20010904//EN"
 "http://www.w3.org/TR/2001/REC-SVG-20010904/DTD/svg10.dtd">
<svg version="1.0" xmlns="http://www.w3.org/2000/svg"
 width="246.000000pt" height="246.000000pt" viewBox="0 0 246.000000 246.000000"
 preserveAspectRatio="xMidYMid meet">
<metadata>
Created by potrace 1.14, written by Peter Selinger 2001-2017
</metadata>
<g transform="translate(0.000000,246.000000) scale(0.100000,-0.100000)"
fill="#000000" stroke="none">
<path d="M1016 2437 c-16 -12 -17 -35 -17 -260 l0 -247 -23 28 c-12 15 -71 95
-131 177 -130 180 -143 195 -167 195 -11 0 -64 -33 -119 -72 -55 -40 -110 -80
-122 -88 -91 -62 -107 -83 -86 -122 12 -23 147 -210 238 -330 l51 -66 -83 28
c-183 63 -374 120 -398 120 -34 0 -40 -9 -71 -100 -82 -238 -93 -291 -67 -314
8 -7 82 -34 164 -60 83 -27 173 -56 200 -66 28 -10 63 -22 79 -27 26 -8 17
-12 -90 -47 -414 -135 -385 -116 -352 -225 11 -36 26 -87 33 -113 24 -82 58
-173 70 -186 6 -7 21 -14 31 -14 17 -2 224 60 279 82 11 5 62 22 113 38 l94
30 -25 -27 c-13 -14 -45 -57 -71 -95 -50 -73 -122 -173 -169 -233 -17 -22 -27
-48 -27 -69 0 -29 8 -38 81 -91 194 -139 230 -163 247 -163 10 0 31 15 46 33
24 28 217 289 259 349 15 21 16 6 16 -218 1 -191 4 -244 15 -260 13 -17 30
-19 208 -22 185 -3 195 -2 213 17 17 19 18 41 18 261 0 132 3 240 6 240 3 -1
31 -36 61 -80 30 -44 67 -97 83 -117 15 -21 45 -63 67 -93 91 -128 100 -130
190 -62 83 62 176 128 218 154 55 34 47 56 -81 228 -134 183 -169 231 -165
235 3 4 96 -25 323 -99 71 -24 138 -41 148 -38 20 5 46 39 51 68 2 11 25 80
50 155 61 181 60 198 -9 214 -29 7 -382 119 -418 133 -11 5 62 32 210 80 126
40 235 77 243 81 18 10 25 67 12 95 -10 20 -24 55 -27 66 0 3 -11 39 -24 80
-50 162 -60 180 -98 182 -17 2 -195 -53 -371 -113 -46 -16 -86 -29 -88 -29 -9
0 19 44 85 134 37 50 94 127 126 171 88 119 89 118 -52 221 -65 47 -135 100
-155 116 -65 50 -79 41 -190 -113 -53 -74 -109 -150 -123 -169 -14 -19 -37
-50 -51 -69 l-24 -35 0 255 c0 185 -3 258 -12 267 -18 18 -398 17 -422 -1z"/>
</g>
</svg>
